<?xml version="1.0" standalone="no"?><!DOCTYPE svg PUBLIC "-//W3C//DTD SVG 1.1//EN" "http://www.w3.org/Graphics/SVG/1.1/DTD/svg11.dtd"><svg t="1650549537961" class="icon" viewBox="0 0 1024 1024" version="1.1" xmlns="http://www.w3.org/2000/svg" p-id="30581" xmlns:xlink="http://www.w3.org/1999/xlink" width="200" height="200"><defs><style type="text/css">@font-face { font-family: feedback-iconfont; src: url("//at.alicdn.com/t/font_1031158_u69w8yhxdu.woff2?t=1630033759944") format("woff2"), url("//at.alicdn.com/t/font_1031158_u69w8yhxdu.woff?t=1630033759944") format("woff"), url("//at.alicdn.com/t/font_1031158_u69w8yhxdu.ttf?t=1630033759944") format("truetype"); }
</style></defs><path d="M739.555556 455.111111a170.666667 170.666667 0 1 0-170.666667-170.666667 170.666667 170.666667 0 0 0 170.666667 170.666667z m0-284.444444a113.777778 113.777778 0 1 1-113.777778 113.777777 113.777778 113.777778 0 0 1 113.777778-113.777777z m108.088888 341.333333a56.888889 56.888889 0 0 0-56.888888 56.888889A284.444444 284.444444 0 1 1 455.111111 233.244444a56.888889 56.888889 0 0 0 0-113.777777 398.222222 398.222222 0 1 0 450.56 449.422222 56.888889 56.888889 0 0 0-58.026667-56.888889z" fill="#1296db" p-id="30582" data-spm-anchor-id="a313x.7781069.0.i2" class="selected"></path></svg>